<svg width="168.000000" height="35.187988" viewBox="0 0 168 35.188" fill="none" xmlns="http://www.w3.org/2000/svg" xmlns:xlink="http://www.w3.org/1999/xlink">
	<desc>
			Created with Pixso.
	</desc>
	<defs>
		<clipPath id="clip17_35">
			<rect rx="-0.500000" width="167.000000" height="34.187801" transform="translate(0.500000 0.500000)" fill="white" fill-opacity="0"/>
		</clipPath>
	</defs>
	<rect rx="-0.500000" width="167.000000" height="34.187801" transform="translate(0.500000 0.500000)" fill="#FFFFFF" fill-opacity="0"/>
	<g clip-path="url(#clip17_35)">
		<rect x="-0.309692" y="0.058105" width="168.626678" height="35.324333" fill="url(#pattern_17_360)" fill-opacity="1.000000"/>
		<path d="M164.16 29.7L164.48 29.7L164.48 27.55L165.26 27.55L165.26 27.27L163.38 27.27L163.38 27.55L164.16 27.55L164.16 29.7Z" fill="#FBF503" fill-opacity="1.000000" fill-rule="nonzero"/>
		<path d="M165.89 27.72L166.54 29.7L166.86 29.7L167.52 27.72L167.52 29.7L167.79 29.7L167.79 27.27L167.39 27.27L166.71 29.35L166.01 27.27L165.56 27.27L165.56 29.7L165.89 29.7L165.89 27.72Z" fill="#FBF503" fill-opacity="1.000000" fill-rule="nonzero"/>
		<path d="M112.02 23.87L112.02 13.8C112.02 11.75 112.98 10.28 115.01 10.28L127.55 10.28C127.63 10.28 127.7 10.2 127.7 10.13L127.7 8.13C127.7 8.11 127.7 8.09 127.69 8.07L112.35 8.07C109.03 8.5 107.41 10.83 107.41 13.8L107.41 23.87C107.41 25.92 106.43 27.39 104.42 27.39L91.17 27.39C91.1 27.39 91.02 27.44 91.02 27.54L91.02 29.55C91.02 29.63 91.07 29.69 91.13 29.71L106.17 29.71C110.09 29.61 112.02 27.1 112.02 23.87Z" fill="#FBF503" fill-opacity="1.000000" fill-rule="nonzero"/>
		<path d="M60.49 29.71L64.9 29.71C64.96 29.69 65.01 29.63 65.01 29.55L65.01 23.13C65.01 21.08 66.16 19.66 67.84 19.66L85.98 19.66C90.07 19.66 92.05 17.12 92.05 13.8C92.05 10.83 90.43 8.5 87.11 8.07L60.41 8.07C60.4 8.09 60.39 8.1 60.39 8.13L60.39 10.13C60.39 10.23 60.44 10.28 60.54 10.28L84.45 10.28C86.48 10.28 87.44 11.75 87.44 13.8C87.44 15.86 86.48 17.33 84.45 17.33L65.53 17.33C62.6 17.33 60.39 19.84 60.39 23.13L60.39 29.55C60.39 29.63 60.43 29.69 60.49 29.71Z" fill="#FBF503" fill-opacity="1.000000" fill-rule="nonzero"/>
		<path d="M127.63 27.39L151.71 27.39C151.79 27.39 151.84 27.44 151.84 27.49L151.84 29.55C151.84 29.65 151.91 29.7 151.99 29.7L156.33 29.7C156.41 29.7 156.48 29.65 156.48 29.55L156.48 27.54C156.48 27.47 156.56 27.39 156.63 27.39L160.94 27.39C161.05 27.39 161.1 27.32 161.1 27.24L161.1 25.21C161.1 25.14 161.05 25.06 160.94 25.06L156.63 25.06C156.56 25.06 156.48 24.98 156.48 24.91L156.48 10.28C156.48 9.09 156.04 8.33 155.3 8.07L154.04 8.07C153.65 8.18 153.22 8.36 152.77 8.63L126.83 24.73C125.82 25.36 125.47 26.07 125.72 26.61C125.92 27.06 126.5 27.39 127.63 27.39ZM131.39 24.71L151.49 12.21C151.61 12.11 151.86 12.13 151.86 12.41L151.86 24.91C151.86 24.98 151.79 25.06 151.71 25.06L131.52 25.06C131.34 25.06 131.26 25.01 131.24 24.96C131.21 24.86 131.26 24.78 131.39 24.71Z" fill="#FBF503" fill-opacity="1.000000" fill-rule="nonzero"/>
		<path d="M16.82 0C18.78 0.36 20.7 0.89 22.62 1.43C23.71 1.75 24.8 2.08 25.89 2.43C27.59 2.98 29.29 3.6 30.83 4.52C31.52 4.94 32.19 5.42 32.76 6C33.37 6.6 33.87 7.32 34.24 8.1C34.92 9.51 35.15 11.09 35.22 12.64C35.25 13.66 35.25 14.68 35.06 15.68C34.9 16.55 34.62 17.4 34.16 18.16C33.75 18.82 33.19 19.4 32.5 19.77C31.84 20.13 31.08 20.3 30.33 20.28C29.19 20.3 28.09 19.93 27.07 19.45C27.05 16.05 27.07 12.64 27.06 9.23C27.06 8.61 27.1 7.99 26.97 7.38C26.89 6.91 26.7 6.43 26.33 6.11C26.08 5.89 25.77 5.77 25.45 5.7C25.13 5.64 24.78 5.77 24.59 6.03C24.25 6.45 24.17 7 24.15 7.52C24.15 16.65 24.16 25.77 24.15 34.9C21.71 34.12 19.26 33.34 16.82 32.56C16.82 21.71 16.82 10.85 16.82 0Z" fill="#FBF503" fill-opacity="1.000000" fill-rule="nonzero"/>
		<path d="M5.84 23.09C9.03 21.96 12.21 20.81 15.39 19.68C15.4 20.94 15.39 22.2 15.4 23.46C15.39 23.63 15.4 23.8 15.38 23.97C12.87 24.86 10.35 25.78 7.84 26.68C7.49 26.81 7.13 26.96 6.86 27.23C6.74 27.36 6.63 27.54 6.7 27.72C6.79 27.93 7 28.05 7.2 28.14C7.75 28.36 8.36 28.39 8.95 28.42C9.6 28.41 10.26 28.36 10.9 28.22C11.33 28.13 11.75 27.99 12.17 27.83C13.24 27.44 14.32 27.04 15.39 26.66C15.4 27.72 15.39 28.78 15.4 29.85C15.39 30.06 15.41 30.27 15.38 30.49C14.06 30.73 12.72 30.89 11.38 30.91C8.67 30.97 5.96 30.55 3.39 29.7C2.55 29.45 1.71 29.13 1.01 28.59C0.62 28.29 0.27 27.91 0.1 27.44C-0.05 27.05 -0.04 26.59 0.14 26.21C0.32 25.83 0.63 25.53 0.97 25.29C1.76 24.75 2.63 24.33 3.52 23.96C4.28 23.63 5.07 23.38 5.84 23.09Z" fill="#FBF503" fill-opacity="1.000000" fill-rule="nonzero"/>
		<path d="M31.47 21.66C32.19 21.58 32.91 21.56 33.64 21.53C36.03 21.54 38.43 21.84 40.72 22.56C41.16 22.69 41.6 22.87 42.04 23.02C42.84 23.31 43.64 23.66 44.28 24.24C44.66 24.59 44.99 25.06 44.99 25.6C45.02 26.04 44.82 26.46 44.53 26.79C43.99 27.4 43.28 27.81 42.56 28.18C41.8 28.57 40.98 28.82 40.18 29.12C35.3 30.88 30.42 32.64 25.54 34.41C25.54 33.03 25.54 31.66 25.54 30.28C25.55 30.23 25.52 30.13 25.59 30.12C29.31 28.79 33.02 27.46 36.73 26.13C37.24 25.94 37.78 25.8 38.2 25.46C38.38 25.32 38.55 25.1 38.46 24.87C38.37 24.66 38.16 24.55 37.96 24.46C37.41 24.24 36.8 24.2 36.21 24.18C35.29 24.19 34.35 24.3 33.47 24.6C30.83 25.53 28.19 26.47 25.54 27.4C25.54 25.93 25.54 24.45 25.54 22.98C27.45 22.3 29.45 21.89 31.47 21.66Z" fill="#FBF503" fill-opacity="1.000000" fill-rule="nonzero"/>
		<path d="M42.32 31.83C42.89 31.75 43.5 32.01 43.84 32.48C44.22 32.97 44.29 33.67 44.02 34.23C43.75 34.8 43.14 35.2 42.5 35.18C41.91 35.2 41.34 34.85 41.06 34.34C40.79 33.9 40.76 33.32 40.97 32.84C41.19 32.29 41.73 31.89 42.32 31.83ZM42.19 32.14C41.87 32.21 41.57 32.41 41.38 32.68C41.15 33 41.06 33.42 41.15 33.8C41.22 34.16 41.45 34.48 41.75 34.68C42.22 34.99 42.88 34.97 43.33 34.63C43.79 34.3 44.01 33.67 43.85 33.13C43.75 32.76 43.49 32.44 43.16 32.26C42.86 32.1 42.51 32.06 42.19 32.14Z" fill="#FBF503" fill-opacity="1.000000" fill-rule="nonzero"/>
		<path d="M41.79 32.53C42.09 32.53 42.39 32.53 42.7 32.53C42.87 32.53 43.05 32.57 43.17 32.7C43.3 32.84 43.31 33.04 43.27 33.21C43.25 33.33 43.15 33.4 43.08 33.48C43.14 33.53 43.22 33.58 43.24 33.68C43.27 33.85 43.24 34.03 43.29 34.21C43.33 34.27 43.36 34.33 43.37 34.4C43.24 34.4 43.12 34.4 42.99 34.4C42.91 34.2 42.97 33.98 42.92 33.78C42.9 33.69 42.81 33.64 42.73 33.64C42.53 33.63 42.32 33.64 42.12 33.64C42.11 33.89 42.13 34.15 42.11 34.4C42.01 34.4 41.9 34.4 41.79 34.4C41.79 33.78 41.79 33.15 41.79 32.53ZM42.12 32.83C42.12 33 42.12 33.17 42.12 33.35C42.3 33.35 42.48 33.35 42.66 33.35C42.76 33.35 42.86 33.33 42.92 33.25C42.98 33.15 42.98 33.02 42.92 32.92C42.88 32.84 42.78 32.83 42.7 32.83C42.5 32.82 42.31 32.83 42.12 32.83Z" fill="#FBF503" fill-opacity="1.000000" fill-rule="nonzero"/>
	</g>
</svg>
