<svg width="58.000000" height="50.268066" viewBox="0 0 58 50.2681" fill="none" xmlns="http://www.w3.org/2000/svg" xmlns:xlink="http://www.w3.org/1999/xlink">
	<desc>
			Created with Pixso.
	</desc>
	<defs>
		<clipPath id="clip17_68">
			<rect id="stadia logo" rx="-0.500000" width="57.000000" height="49.268284" transform="translate(0.500000 0.500000)" fill="white" fill-opacity="0"/>
		</clipPath>
	</defs>
	<rect id="stadia logo" rx="-0.500000" width="57.000000" height="49.268284" transform="translate(0.500000 0.500000)" fill="#FFFFFF" fill-opacity="0"/>
	<g clip-path="url(#clip17_68)">
		<path id="Fill-1" d="M8.91 8.19C8.69 8.36 8.57 8.61 8.56 8.88L8.56 8.89C8.57 9 8.59 9.11 8.63 9.22L12.55 18.36C12.72 18.77 13.17 18.96 13.57 18.82C16.13 17.87 25 14.89 30.74 16.5C30.74 16.5 24.98 16.84 19.78 21.05C19.48 21.29 19.38 21.71 19.53 22.06C19.96 23.04 20.81 25.02 21.29 26.14L21.96 27.77C22.12 28.16 22.63 28.21 22.86 27.86C24.07 25.97 26.12 25.03 28.09 24.2C30.1 23.36 32.21 22.73 34.35 22.36C36.64 21.96 38.97 21.85 41.28 22.07C41.67 22.1 42.02 21.86 42.14 21.48L43.91 15.65C44.01 15.31 43.89 14.93 43.61 14.72C41.64 13.25 33.83 8.3 20.11 10.29C20.11 10.29 31.82 3.35 46.69 10.97C47.14 11.21 47.68 10.96 47.83 10.47L49.39 5.33C49.41 5.25 49.42 5.17 49.43 5.09L49.43 5.07C49.42 4.78 49.27 4.5 49.01 4.35C47.15 3.26 40.83 0 32.14 0C25.48 -0.01 17.42 1.91 8.91 8.19Z" fill="#FBF503" fill-opacity="1.000000" fill-rule="evenodd"/>
		<path id="Shape" d="M16.42 50.25L15.01 50.25C14.9 50.25 14.8 50.21 14.72 50.13C14.65 50.05 14.61 49.95 14.61 49.83L14.61 41.4L11.15 41.4C10.93 41.4 10.75 41.22 10.75 40.99L10.75 39.68C10.75 39.45 10.93 39.27 11.15 39.27L20.28 39.27C20.5 39.27 20.68 39.45 20.68 39.68L20.68 40.99C20.68 41.22 20.5 41.4 20.28 41.4L16.82 41.4L16.82 49.83C16.82 49.95 16.78 50.05 16.7 50.13C16.63 50.21 16.52 50.25 16.42 50.25ZM9.82 49.45C10.34 48.92 10.55 48.24 10.55 47.11L10.55 46.82C10.55 45.69 10.34 45.01 9.82 44.47C9.27 43.91 8.55 43.68 7.32 43.68L2.85 43.68C2.67 43.68 2.5 43.6 2.38 43.47C2.25 43.34 2.18 43.17 2.18 42.98L2.18 42.1C2.18 41.71 2.48 41.4 2.85 41.4L9.25 41.4C9.47 41.4 9.65 41.22 9.65 40.99L9.65 39.68C9.65 39.45 9.47 39.27 9.25 39.27L3.23 39.27C2 39.27 1.27 39.5 0.72 40.07C0.21 40.6 0 41.28 0 42.41L0 42.64C0 43.77 0.21 44.45 0.72 44.98C1.27 45.55 2 45.78 3.23 45.78L7.71 45.78C8.08 45.78 8.38 46.09 8.38 46.47L8.38 47.42C8.38 47.8 8.08 48.11 7.71 48.11L0.98 48.11C0.75 48.11 0.57 48.3 0.57 48.53L0.57 49.83C0.57 49.95 0.62 50.05 0.69 50.13C0.77 50.21 0.87 50.25 0.98 50.25L7.32 50.25C8.55 50.25 9.27 50.02 9.82 49.45ZM41.74 44.73L41.74 44.8C41.74 46.92 41.42 48.01 40.5 48.95C39.66 49.83 38.4 50.26 36.75 50.26L31.88 50.26C31.66 50.26 31.48 50.08 31.48 49.85L31.48 39.68C31.48 39.45 31.66 39.27 31.88 39.27L36.75 39.27C38.4 39.27 39.66 39.71 40.5 40.58C41.42 41.52 41.74 42.61 41.74 44.73ZM39.53 44.73C39.53 43.32 39.44 42.64 38.91 42.09C38.47 41.64 37.77 41.42 36.75 41.42L33.7 41.42L33.7 48.11L36.75 48.11C37.77 48.11 38.47 47.89 38.91 47.44C39.44 46.89 39.53 46.21 39.53 44.8L39.53 44.73ZM45.33 49.83L45.33 39.68C45.33 39.45 45.15 39.27 44.93 39.27L43.52 39.27C43.3 39.27 43.12 39.45 43.12 39.68L43.12 49.83C43.12 50.06 43.3 50.25 43.52 50.25L44.93 50.25C45.04 50.25 45.14 50.21 45.22 50.13C45.29 50.05 45.34 49.95 45.34 49.83L45.33 49.83ZM30.19 50.25L28.69 50.25C28.48 50.25 28.29 50.12 28.21 49.93L27.52 48.39L21.98 48.39L21.29 49.93C21.21 50.12 21.02 50.25 20.81 50.25L19.31 50.25C19.17 50.25 19.04 50.18 18.97 50.06C18.9 49.93 18.89 49.78 18.95 49.65L23.48 39.91C23.72 39.41 24.21 39.09 24.75 39.09C25.29 39.09 25.78 39.41 26.02 39.91L30.55 49.65C30.61 49.78 30.6 49.93 30.53 50.06C30.45 50.18 30.33 50.25 30.19 50.25L30.19 50.25ZM22.89 46.36L26.62 46.36L24.76 41.97L22.89 46.36ZM57.59 50.25L56.1 50.25C55.89 50.25 55.7 50.12 55.61 49.93L54.93 48.39L49.39 48.39L48.7 49.93C48.61 50.12 48.42 50.25 48.22 50.25L46.72 50.25C46.58 50.25 46.45 50.18 46.38 50.06C46.3 49.93 46.29 49.78 46.35 49.65L50.89 39.91C51.12 39.41 51.61 39.09 52.15 39.09C52.69 39.09 53.19 39.41 53.42 39.91L57.95 49.65C58.02 49.78 58.01 49.93 57.93 50.06C57.86 50.18 57.73 50.25 57.59 50.25L57.59 50.25ZM50.29 46.36L54.02 46.36L52.16 41.97L50.29 46.36Z" fill="#FBF503" fill-opacity="1.000000" fill-rule="nonzero"/>
	</g>
</svg>
