<svg width="26.666626" height="26.666748" viewBox="0 0 26.6666 26.6667" fill="none" xmlns="http://www.w3.org/2000/svg" xmlns:xlink="http://www.w3.org/1999/xlink">
	<desc>
			Created with Pixso.
	</desc>
	<defs/>
	<path d="M16 0L2.66 0C1.18 0 0 1.19 0 2.66L0 16L2.66 16L2.66 2.66L16 2.66L16 0ZM21.33 5.33L8 5.33C6.52 5.33 5.33 6.53 5.33 8L5.33 21.33L8 21.33L8 8L21.33 8L21.33 5.33ZM24 10.66L13.33 10.66C11.85 10.66 10.66 11.86 10.66 13.33L10.66 24C10.66 25.46 11.85 26.66 13.33 26.66L24 26.66C25.46 26.66 26.66 25.46 26.66 24L26.66 13.33C26.66 11.86 25.46 10.66 24 10.66Z" fill="#000000" fill-opacity="1.000000" fill-rule="nonzero"/>
</svg>
