<svg width="178.000000" height="35.187988" viewBox="0 0 178 35.188" fill="none" xmlns="http://www.w3.org/2000/svg" xmlns:xlink="http://www.w3.org/1999/xlink">
	<desc>
			Created with Pixso.
	</desc>
	<defs>
		<clipPath id="clip15_59">
			<rect rx="-0.500000" width="177.000000" height="34.187801" transform="translate(0.500000 0.500000)" fill="white" fill-opacity="0"/>
		</clipPath>
	</defs>
	<rect rx="-0.500000" width="177.000000" height="34.187801" transform="translate(0.500000 0.500000)" fill="#FFFFFF" fill-opacity="0"/>
	<g clip-path="url(#clip15_59)">
		<path d="M113.88 28.42L107.08 19.27L100.29 28.42L97.5 28.42L105.67 17.36L98.21 7.31L101 7.31L107.08 15.51L113.16 7.31L115.95 7.31L108.5 17.36L116.67 28.42L113.88 28.42ZM60.93 28.42L52.75 17.36L60.21 7.31L57.42 7.31L51.34 15.51L45.26 7.31L42.47 7.31L49.93 17.36L41.75 28.42L44.55 28.42L51.34 19.27L58.13 28.42L60.93 28.42Z" fill="#FBF503" fill-opacity="1.000000" fill-rule="nonzero"/>
		<path d="M76.48 18.16C76.06 17.8 75.59 17.51 75.08 17.28C75.86 16.87 76.5 16.26 76.95 15.52C77.4 14.77 77.64 13.92 77.64 13.05C77.64 11.7 77.14 7.31 70.73 7.31L62.09 7.31L62.09 16.41L59.22 16.41C58.84 16.89 58 18.05 57.67 18.53L62.09 18.53L62.09 28.42L70.73 28.42C75.41 28.42 78.31 26.06 78.31 22.26C78.31 20.6 77.68 19.18 76.48 18.16ZM64.48 9.51L70.73 9.51C72.42 9.51 75.25 9.93 75.25 12.87C75.25 15.09 73.6 16.41 70.73 16.41L64.48 16.41L64.48 9.51ZM70.73 26.22L64.48 26.22L64.48 18.53L70.73 18.53C73.1 18.53 75.93 19.18 75.93 22.21C75.93 25.69 72.67 26.22 70.73 26.22ZM89.55 6.83C83.58 6.83 79.4 11.36 79.4 17.85C79.4 24.36 83.58 28.89 89.55 28.89C95.52 28.89 99.68 24.36 99.68 17.85C99.68 11.36 95.52 6.83 89.55 6.83ZM89.55 26.65C85 26.65 81.81 23.03 81.81 17.85C81.81 12.67 85 9.06 89.55 9.06C94.09 9.06 97.26 12.67 97.26 17.85C97.26 23.03 94.09 26.65 89.55 26.65ZM5.29 5.05L5.27 5.07L5.27 5.07C3.6 6.71 2.27 8.65 1.37 10.8C0.46 12.95 0 15.26 0 17.59C0 21.44 1.27 25.19 3.62 28.25C3.65 28.28 3.69 28.29 3.72 28.28C3.75 28.26 3.75 28.22 3.74 28.18C2.39 24.04 9.3 13.99 12.87 9.77C12.88 9.76 12.89 9.74 12.89 9.72C12.89 9.7 12.88 9.68 12.86 9.66C6.86 3.73 5.25 5.09 5.27 5.07L5.29 5.05ZM30.17 5.05L30.19 5.07L30.19 5.07C31.86 6.71 33.19 8.65 34.09 10.8C35 12.95 35.46 15.26 35.46 17.59C35.46 21.44 34.19 25.19 31.83 28.25C31.81 28.28 31.77 28.29 31.74 28.28C31.71 28.26 31.71 28.22 31.72 28.18C33.07 24.04 26.17 13.98 22.6 9.76C22.59 9.75 22.57 9.73 22.57 9.71C22.57 9.69 22.59 9.67 22.61 9.65C28.61 3.72 30.2 5.09 30.18 5.07L30.17 5.05ZM17.73 0C21.31 0 24.25 0.97 26.96 2.57C27 2.59 27.01 2.62 26.99 2.66C26.98 2.69 26.94 2.7 26.91 2.69C23.48 1.95 18.26 4.89 17.77 5.19C17.76 5.19 17.75 5.2 17.73 5.2C17.71 5.2 17.7 5.19 17.69 5.19C16.38 4.44 11.56 1.93 8.52 2.7C8.49 2.71 8.45 2.71 8.44 2.67C8.43 2.66 8.43 2.64 8.44 2.62C8.44 2.61 8.45 2.6 8.47 2.59C11.18 0.97 14.16 0 17.73 0ZM17.73 14.11C17.75 14.11 17.77 14.12 17.79 14.13C23.09 18.14 32.17 28.03 29.4 30.83L29.4 30.83L29.4 30.83L29.4 30.83C26.17 33.64 22.02 35.19 17.73 35.18C13.43 35.19 9.29 33.64 6.06 30.83L6.05 30.83L6.06 30.83C3.29 28.03 12.37 18.14 17.67 14.13C17.68 14.12 17.71 14.11 17.73 14.11ZM157.94 7.31L157.94 24.63L145.09 7.3L142.98 7.3L142.98 28.38L145.35 28.38L145.35 11.45L157.94 28.4L160.31 28.4L160.31 7.31L157.94 7.31ZM130.69 6.82C124.71 6.82 120.54 11.36 120.54 17.85C120.54 24.35 124.71 28.89 130.69 28.89C136.66 28.89 140.82 24.35 140.82 17.85C140.82 11.36 136.66 6.82 130.69 6.82ZM130.69 26.65C126.14 26.65 122.95 23.03 122.95 17.85C122.95 12.67 126.14 9.05 130.69 9.05C135.23 9.05 138.4 12.67 138.4 17.85C138.4 23.03 135.23 26.65 130.69 26.65ZM165.35 26.34L165.35 18.53L177.05 18.53L177.05 16.47L165.35 16.47L165.35 9.36L177.85 9.36L177.85 7.3L162.97 7.3L162.97 28.4L177.99 28.4L177.99 26.34L165.35 26.34Z" fill="#FBF503" fill-opacity="1.000000" fill-rule="nonzero"/>
	</g>
</svg>
